# xmcd
# 
# Track frame offsets:
#     150
#     11074
#     30360
#     44660
#     58696
#     73025
#     82566
#     94960
#     109507
#     124729
#     139027
#     156577
#     170399
#     182499
#     202104
#     216309
#     229885
#     247028
#     265607
#     283709
#     301468
#     314434
#     328537
# 
# Disc length: 4640
# 
# Revision: 0
# Processed by: cddbd v1.5.2PL0 Copyright (c) Steve Scherf et al.
# Submitted via: fre:ac v1.0.17
# 
DISCID=4c121e17
DTITLE=Artistes Variés - Country Québécois
DYEAR=0
DGENRE=Country
TTITLE0=Un coin du ciel bleu
TTITLE1=Qui serais-tu
TTITLE2=L'hirondelle
TTITLE3=Une rose
TTITLE4=L'ile aux coudres
TTITLE5=Plus qu' hier moins que demain
TTITLE6=Regarde autour de toi
TTITLE7=Un jour à la fois
TTITLE8=Ce n' est plus comme avant
TTITLE9=La Louisianne
TTITLE10=Le jour de tes noces
TTITLE11=A toi qui viens de naitre
TTITLE12=Un jour Lara
TTITLE13=Près du vieux pont
TTITLE14=Fais un sourire à la vie
TTITLE15=Le secret du bonheur
TTITLE16=L' amour que j' ai pour toi
TTITLE17=Vivre
TTITLE18=Ton enfant
TTITLE19=Une fleur à ta boutonnière
TTITLE20=Un abris pour la nuit
TTITLE21=La voix de mon coeur
TTITLE22=Les oiseaux blancs
EXTD=
EXTT0=
EXTT1=
EXTT2=
EXTT3=
EXTT4=
EXTT5=
EXTT6=
EXTT7=
EXTT8=
EXTT9=
EXTT10=
EXTT11=
EXTT12=
EXTT13=
EXTT14=
EXTT15=
EXTT16=
EXTT17=
EXTT18=
EXTT19=
EXTT20=
EXTT21=
EXTT22=
PLAYORDER=
